# Blender v2.80 (sub 75) OBJ File: ''
# www.blender.org
mtllib casefile.mtl
o Cube
v 1.000000 0.020000 -0.640000
v 1.000000 -0.020000 -0.640000
v 1.000000 0.020000 0.640000
v 1.000000 -0.020000 0.640000
v -1.000000 0.020000 -0.640000
v -1.000000 -0.020000 -0.640000
v -1.000000 0.020000 0.640000
v -1.000000 -0.020000 0.640000
vt 0.277170 0.697554
vt 0.277170 0.033641
vt 0.725931 0.033641
vt 0.725931 0.697554
vt 0.276846 0.701190
vt 0.723154 0.701190
vt 0.589262 0.792043
vt 0.410738 0.792043
vt 0.589262 0.970567
vt 0.410738 0.970567
vt 0.277170 0.697554
vt 0.277170 0.033641
vt 0.725931 0.033641
vt 0.725931 0.697554
vt 0.232215 0.792043
vt 0.410738 0.792043
vt 0.410738 0.970567
vt 0.232215 0.970567
vt 0.589262 0.792043
vt 0.767785 0.792043
vt 0.767785 0.970567
vt 0.589262 0.970567
vn 0.0000 1.0000 0.0000
vn 0.0000 0.0000 1.0000
vn -1.0000 0.0000 0.0000
vn 0.0000 -1.0000 0.0000
vn 1.0000 0.0000 0.0000
vn 0.0000 0.0000 -1.0000
usemtl Material
s off
f 1/1/1 5/2/1 7/3/1 3/4/1
f 4/5/2 3/6/2 7/7/2 8/8/2
f 8/8/3 7/7/3 5/9/3 6/10/3
f 6/11/4 2/12/4 4/13/4 8/14/4
f 2/15/5 1/16/5 3/17/5 4/18/5
f 6/19/6 5/20/6 1/21/6 2/22/6
